<svg xmlns="http://www.w3.org/2000/svg" width="1065" height="494" viewBox="0 0 1065 494">
  <defs>
    <style>
      .cls-1 {
        fill: #f93;
      }

      .cls-2 {
        fill: #fff;
      }

      .cls-3 {
        fill: none;
      }
    </style>
  </defs>
  <g id="Gruppe_6" data-name="Gruppe 6" transform="translate(-399 -582)">
    <path id="Pfad_7" data-name="Pfad 7" class="cls-1" d="M77.73,51.871l7.547-36.926h8.457L82.413,64H74.26L64.927,28.186,55.393,64H47.206L35.885,14.945h8.457L51.956,51.8l9.366-36.858h7.143ZM107.884,64H99.7V27.546h8.187ZM99.191,18.079a4.345,4.345,0,0,1,1.2-3.133,4.518,4.518,0,0,1,3.42-1.247,4.575,4.575,0,0,1,3.437,1.247,4.312,4.312,0,0,1,1.213,3.133,4.212,4.212,0,0,1-1.213,3.083,4.611,4.611,0,0,1-3.437,1.23,4.553,4.553,0,0,1-3.42-1.23A4.244,4.244,0,0,1,99.191,18.079Zm32.58,40.059a7.4,7.4,0,0,0,5.087-1.786,6.1,6.1,0,0,0,2.156-4.414h7.715a12.026,12.026,0,0,1-2.123,6.351,13.922,13.922,0,0,1-5.391,4.666,16.064,16.064,0,0,1-7.345,1.718q-7.648,0-12.129-4.953t-4.481-13.679V45.2q0-8.322,4.447-13.325t12.129-5a14.978,14.978,0,0,1,10.6,3.79,13.577,13.577,0,0,1,4.3,9.956h-7.715a7.5,7.5,0,0,0-2.139-5.155,6.884,6.884,0,0,0-5.1-2.021,7.2,7.2,0,0,0-6.132,2.881q-2.156,2.881-2.19,8.743v1.314q0,5.93,2.139,8.844A7.2,7.2,0,0,0,131.771,58.138Zm29.21-26.616a12.815,12.815,0,0,1,10.141-4.649q11.657,0,11.826,13.308V64h-8.187V40.483q0-3.773-1.634-5.34a6.68,6.68,0,0,0-4.8-1.567,7.886,7.886,0,0,0-7.345,4.38V64h-8.187V12.25h8.187Zm40.5-12.836v8.861h6.435V33.61h-6.435V53.96a4.482,4.482,0,0,0,.825,3.015,3.827,3.827,0,0,0,2.948.927,12.612,12.612,0,0,0,2.864-.337V63.9a20.164,20.164,0,0,1-5.391.775q-9.434,0-9.434-10.411V33.61h-6V27.546h6V18.685ZM222.873,64h-8.187V27.546h8.187ZM214.18,18.079a4.345,4.345,0,0,1,1.2-3.133A4.518,4.518,0,0,1,218.8,13.7a4.575,4.575,0,0,1,3.437,1.247,4.312,4.312,0,0,1,1.213,3.133,4.212,4.212,0,0,1-1.213,3.083,4.611,4.611,0,0,1-3.437,1.23,4.553,4.553,0,0,1-3.42-1.23A4.244,4.244,0,0,1,214.18,18.079ZM230.352,45.5q0-8.49,3.992-13.561a12.814,12.814,0,0,1,10.6-5.071,12,12,0,0,1,9.8,4.346l.371-3.672h7.378V62.888q0,7.176-4.464,11.32t-12.045,4.144a19.413,19.413,0,0,1-7.833-1.668,13.919,13.919,0,0,1-5.812-4.363l3.875-4.919a11.7,11.7,0,0,0,9.3,4.481,9.043,9.043,0,0,0,6.435-2.207q2.358-2.207,2.358-6.486V60.732a12.054,12.054,0,0,1-9.434,3.942,12.783,12.783,0,0,1-10.461-5.087Q230.352,54.5,230.352,45.5Zm8.153.708q0,5.492,2.24,8.642A7.2,7.2,0,0,0,246.962,58a7.879,7.879,0,0,0,7.345-4.245V37.721a7.766,7.766,0,0,0-7.277-4.144,7.233,7.233,0,0,0-6.283,3.2Q238.505,39.978,238.505,46.211Zm48.448,18.463q-7.783,0-12.617-4.9T269.5,46.716V45.706a21.874,21.874,0,0,1,2.106-9.754,16.027,16.027,0,0,1,5.913-6.688,15.632,15.632,0,0,1,8.49-2.392q7.446,0,11.506,4.75t4.06,13.443v3.3h-23.82a10.947,10.947,0,0,0,3.015,7.143,9.053,9.053,0,0,0,6.654,2.628,11.086,11.086,0,0,0,9.164-4.548L301,57.8a14.739,14.739,0,0,1-5.845,5.071A18.3,18.3,0,0,1,286.954,64.674Zm-.977-31.232a6.894,6.894,0,0,0-5.441,2.358,12.224,12.224,0,0,0-2.645,6.57h15.6v-.606a9.951,9.951,0,0,0-2.19-6.216A6.842,6.842,0,0,0,285.977,33.442Z" transform="translate(1058 699)"/>
    <path id="Pfad_6" data-name="Pfad 6" class="cls-2" d="M38.443-25.431H14.278V0H6.684V-57.586H42.359v6.249H14.278v19.7H38.443Zm9.907,3.639A25.276,25.276,0,0,1,50.822-33.1,18.44,18.44,0,0,1,57.7-40.856a18.733,18.733,0,0,1,10.066-2.729,18.047,18.047,0,0,1,14.139,6.051q5.4,6.051,5.4,16.1v.514A25.5,25.5,0,0,1,84.915-9.71a18.169,18.169,0,0,1-6.842,7.732A18.948,18.948,0,0,1,67.849.791a18,18,0,0,1-14.1-6.051q-5.4-6.051-5.4-16.018Zm7.356.87q0,7.119,3.3,11.43a10.569,10.569,0,0,0,8.84,4.311,10.505,10.505,0,0,0,8.859-4.37q3.283-4.37,3.283-12.241,0-7.04-3.342-11.41a10.625,10.625,0,0,0-8.879-4.37,10.507,10.507,0,0,0-8.741,4.311Q55.706-28.951,55.706-20.922Zm53.531,1.107-4.588,4.786V0H97.333V-60.75h7.317v36.743l3.916-4.707,13.329-14.08h8.9L114.142-24.917,132.731,0h-8.583ZM165.577-4.232Q161.305.791,153.039.791q-6.842,0-10.422-3.975T139-14.95V-42.794h7.317v27.646q0,9.729,7.91,9.729,8.385,0,11.153-6.249V-42.794H172.7V0h-6.961Zm43.96-7.119a5.387,5.387,0,0,0-2.235-4.608q-2.235-1.641-7.792-2.828a36.838,36.838,0,0,1-8.82-2.848,12.548,12.548,0,0,1-4.825-3.955,9.461,9.461,0,0,1-1.562-5.458,11.1,11.1,0,0,1,4.449-8.9,17.377,17.377,0,0,1,11.371-3.639q7.277,0,11.806,3.757a11.934,11.934,0,0,1,4.529,9.611H209.1a6.605,6.605,0,0,0-2.551-5.181,9.558,9.558,0,0,0-6.427-2.175,10,10,0,0,0-6.249,1.74,5.478,5.478,0,0,0-2.254,4.548,4.438,4.438,0,0,0,2.1,3.995q2.1,1.345,7.574,2.571a39.464,39.464,0,0,1,8.879,2.927,12.952,12.952,0,0,1,5.043,4.094,10.065,10.065,0,0,1,1.641,5.834,10.952,10.952,0,0,1-4.588,9.2Q207.678.791,200.361.791a21.549,21.549,0,0,1-9.1-1.819,14.8,14.8,0,0,1-6.19-5.082,12.249,12.249,0,0,1-2.235-7.06h7.317A7.575,7.575,0,0,0,193.1-7.337a11.431,11.431,0,0,0,7.258,2.156,11.8,11.8,0,0,0,6.664-1.681A5.165,5.165,0,0,0,209.537-11.351Zm42.576,0a5.387,5.387,0,0,0-2.235-4.608q-2.235-1.641-7.792-2.828a36.838,36.838,0,0,1-8.82-2.848,12.548,12.548,0,0,1-4.825-3.955,9.461,9.461,0,0,1-1.562-5.458,11.1,11.1,0,0,1,4.449-8.9A17.377,17.377,0,0,1,242.7-43.585q7.277,0,11.806,3.757a11.934,11.934,0,0,1,4.529,9.611h-7.356a6.605,6.605,0,0,0-2.551-5.181,9.558,9.558,0,0,0-6.427-2.175,10,10,0,0,0-6.249,1.74,5.478,5.478,0,0,0-2.254,4.548,4.438,4.438,0,0,0,2.1,3.995q2.1,1.345,7.574,2.571a39.464,39.464,0,0,1,8.879,2.927,12.952,12.952,0,0,1,5.043,4.094,10.065,10.065,0,0,1,1.641,5.834,10.952,10.952,0,0,1-4.588,9.2Q250.254.791,242.937.791a21.549,21.549,0,0,1-9.1-1.819,14.8,14.8,0,0,1-6.19-5.082,12.249,12.249,0,0,1-2.235-7.06h7.317a7.575,7.575,0,0,0,2.947,5.834,11.431,11.431,0,0,0,7.258,2.156A11.8,11.8,0,0,0,249.6-6.862,5.165,5.165,0,0,0,252.113-11.351ZM277.721,0H270.4V-42.794h7.317Zm-7.91-54.145a4.368,4.368,0,0,1,1.088-3.006,4.084,4.084,0,0,1,3.223-1.226,4.147,4.147,0,0,1,3.243,1.226,4.322,4.322,0,0,1,1.107,3.006,4.179,4.179,0,0,1-1.107,2.966,4.222,4.222,0,0,1-3.243,1.187,4.157,4.157,0,0,1-3.223-1.187A4.223,4.223,0,0,1,269.811-54.145ZM308,.791q-8.7,0-14.159-5.715T288.379-20.21v-1.345a25.68,25.68,0,0,1,2.432-11.371,18.974,18.974,0,0,1,6.8-7.831,17.1,17.1,0,0,1,9.472-2.828q8.345,0,12.973,5.5t4.627,15.741V-19.3H295.7a15.212,15.212,0,0,0,3.7,10.224,11.624,11.624,0,0,0,9,3.9,12.744,12.744,0,0,0,6.565-1.582,16.5,16.5,0,0,0,4.707-4.192l4.469,3.48Q318.754.791,308,.791Zm-.91-38.364a9.76,9.76,0,0,0-7.436,3.223q-3.006,3.223-3.718,9.037H317.37v-.554q-.316-5.577-3.006-8.642A9.189,9.189,0,0,0,307.087-37.573Zm47.559,1.345a21.926,21.926,0,0,0-3.6-.277q-7.2,0-9.769,6.13V0H333.96V-42.794h7.119l.119,4.944a11.393,11.393,0,0,1,10.2-5.735,7.475,7.475,0,0,1,3.243.554ZM379.186.791q-8.7,0-14.159-5.715T359.569-20.21v-1.345A25.68,25.68,0,0,1,362-32.926a18.974,18.974,0,0,1,6.8-7.831,17.1,17.1,0,0,1,9.472-2.828q8.345,0,12.973,5.5t4.627,15.741V-19.3H366.886a15.212,15.212,0,0,0,3.7,10.224,11.624,11.624,0,0,0,9,3.9,12.744,12.744,0,0,0,6.565-1.582,16.5,16.5,0,0,0,4.707-4.192l4.469,3.48Q389.944.791,379.186.791Zm-.91-38.364a9.76,9.76,0,0,0-7.436,3.223q-3.006,3.223-3.718,9.037H388.56v-.554q-.316-5.577-3.006-8.642A9.189,9.189,0,0,0,378.276-37.573Z" transform="translate(516 784)"/>
    <path id="Pfad_8" data-name="Pfad 8" class="cls-2" d="M-62.55-21.713q0-9.888,4.588-15.88a14.7,14.7,0,0,1,12.3-5.992,13.968,13.968,0,0,1,11,4.746V-60.75h9.611V0h-8.7l-.475-4.43A14.167,14.167,0,0,1-45.74.791,14.618,14.618,0,0,1-57.9-5.26Q-62.55-11.312-62.55-21.713Zm9.611.831q0,6.526,2.511,10.184A8.149,8.149,0,0,0-43.288-7.04a9.076,9.076,0,0,0,8.622-5.26V-30.573a8.938,8.938,0,0,0-8.543-5.142,8.209,8.209,0,0,0-7.2,3.7Q-52.939-28.318-52.939-20.883ZM10.54,0A14.832,14.832,0,0,1,9.433-3.995,14.96,14.96,0,0,1-1.8.791,15.1,15.1,0,0,1-12.32-2.887a11.768,11.768,0,0,1-4.074-9.1q0-6.842,5.082-10.5T3.223-26.143H9.116v-2.808a7.5,7.5,0,0,0-1.859-5.32q-1.859-2-5.656-2a8.466,8.466,0,0,0-5.379,1.641,5.08,5.08,0,0,0-2.1,4.173h-9.611a10.667,10.667,0,0,1,2.333-6.585A15.546,15.546,0,0,1-6.8-41.845a22.3,22.3,0,0,1,8.958-1.74q7.515,0,11.984,3.777t4.588,10.619v19.3A21.874,21.874,0,0,0,20.349-.672V0ZM-.02-6.921A10.932,10.932,0,0,0,5.339-8.306a9.248,9.248,0,0,0,3.777-3.718v-8.068H3.935q-5.339,0-8.029,1.859a6.022,6.022,0,0,0-2.689,5.26,5.616,5.616,0,0,0,1.839,4.41A7.122,7.122,0,0,0-.02-6.921Zm52.8-4.707a4.357,4.357,0,0,0-2.116-3.916,22.5,22.5,0,0,0-7.02-2.373,36.089,36.089,0,0,1-8.187-2.61q-7.2-3.48-7.2-10.085a11.391,11.391,0,0,1,4.667-9.255q4.667-3.718,11.865-3.718,7.673,0,12.4,3.8a12.048,12.048,0,0,1,4.726,9.848H52.306a5.923,5.923,0,0,0-2.057-4.608,7.882,7.882,0,0,0-5.458-1.839,8.517,8.517,0,0,0-5.161,1.463,4.613,4.613,0,0,0-2,3.916,3.9,3.9,0,0,0,1.859,3.441q1.859,1.226,7.515,2.472a35.572,35.572,0,0,1,8.879,2.966A12.573,12.573,0,0,1,60.671-18a10.54,10.54,0,0,1,1.562,5.854,11.15,11.15,0,0,1-4.786,9.354Q52.662.791,44.91.791a22.128,22.128,0,0,1-9.374-1.9,15.427,15.427,0,0,1-6.407-5.221,12.358,12.358,0,0,1-2.294-7.159h9.334a6.772,6.772,0,0,0,2.571,5.24,9.99,9.99,0,0,0,6.289,1.839A9.719,9.719,0,0,0,50.8-7.851,4.468,4.468,0,0,0,52.781-11.628Z" transform="translate(1029 858)"/>
    <rect id="Rechteck_19" data-name="Rechteck 19" class="cls-3" width="1065" height="494" transform="translate(399 582)"/>
  </g>
</svg>
