<?xml version="1.0" encoding="UTF-8" standalone="no"?><!DOCTYPE svg PUBLIC "-//W3C//DTD SVG 1.1//EN" "http://www.w3.org/Graphics/SVG/1.1/DTD/svg11.dtd"><svg width="100%" height="100%" viewBox="0 0 284 284" version="1.1" xmlns="http://www.w3.org/2000/svg" xmlns:xlink="http://www.w3.org/1999/xlink" xml:space="preserve" xmlns:serif="http://www.serif.com/" style="fill-rule:evenodd;clip-rule:evenodd;stroke-linejoin:round;stroke-miterlimit:2;"><g><path d="M155.859,197.604c6.703,-5.559 6.707,-14.334 0.01,-19.584l-117.016,-91.733c-6.697,-5.25 -17.575,-4.999 -24.277,0.56c-6.702,5.558 -6.707,14.334 -0.009,19.584l117.015,91.732c6.697,5.25 17.575,5 24.277,-0.559Z" style="fill:#ccc;"/><path d="M268.582,85.543c-6.894,-5.404 -17.84,-5.355 -24.43,0.11l-111.569,92.537c-6.589,5.465 -6.342,14.29 0.552,19.694c6.893,5.404 17.84,5.355 24.429,-0.11l111.57,-92.537c6.589,-5.465 6.341,-14.29 -0.552,-19.694Z" style="fill:#ccc;"/></g></svg>